<?xml version="1.0" encoding="iso-8859-1"?>
<!-- Uploaded to: SVG Repo, www.svgrepo.com, Generator: SVG Repo Mixer Tools -->
<svg version="1.1" id="Layer_1" xmlns="http://www.w3.org/2000/svg" xmlns:xlink="http://www.w3.org/1999/xlink" 
	 viewBox="0 0 512 512" xml:space="preserve">
<g>
	<rect y="361.326" style="fill:#B0B0B0;" width="33.391" height="43.93"/>
	<rect x="116.001" y="293.552" style="fill:#B0B0B0;" width="33.391" height="111.705"/>
</g>
<g>
	<rect x="478.609" y="361.326" style="fill:#6F6F6F;" width="33.391" height="43.93"/>
	<rect x="362.607" y="293.552" style="fill:#6F6F6F;" width="33.391" height="111.705"/>
</g>
<polygon style="fill:#D7D7D7;" points="0,380.009 0,274.305 208.038,193.934 215.922,355.705 "/>
<polygon style="fill:#B0B0B0;" points="512,380.009 296.078,355.705 303.962,193.934 512,274.305 "/>
<polygon style="fill:#ECECED;" points="197.358,137.062 197.358,342.316 240.489,450.631 271.511,450.631 314.642,342.316 
	314.642,137.062 "/>
<polygon style="fill:#D7D7D7;" points="256,137.062 256,450.631 271.511,450.631 314.642,342.316 314.642,137.062 "/>
<rect x="208.451" y="427.763" style="fill:#6F6F6F;" width="95.098" height="33.391"/>
<rect x="256" y="427.763" style="fill:#444444;" width="47.549" height="33.391"/>
<path style="fill:#D7D7D7;" d="M314.642,168.128H197.358v-58.641c0-32.335,26.307-58.642,58.642-58.642s58.642,26.307,58.642,58.642
	V168.128z"/>
<path style="fill:#B0B0B0;" d="M314.642,168.128H256c0,0,0-99.455,0-117.281c32.335,0,58.642,26.307,58.642,58.642V168.128z"/>
<circle style="fill:#E79C25;" cx="256" cy="109.488" r="10.401"/>
<path style="fill:#E0711B;" d="M266.401,109.487c0,5.744-4.657,10.401-10.401,10.401c0-7.302,0-15.683,0-20.804
	C261.744,99.086,266.401,103.743,266.401,109.487z"/>
</svg>